<svg id="Capa_1" data-name="Capa 1" xmlns="http://www.w3.org/2000/svg" width="953.09" height="192.76" viewBox="0 0 953.09 192.76">
  <defs>
    <style>
      .cls-1 {
        fill: #fff;
      }
    </style>
  </defs>
  <title>PerfectHost-logo-dark</title>
  <g>
    <path class="cls-1" d="M105.52,87.05q-4.09-7.67-4.09-12.12c0-3.09,1.18-4.63,3.56-4.63s4.39,1.9,5.7,5.7l.36,1.07q18.53-34.84,40.79-53.24Q141,14.89,123.52,14.89q-21.55,0-36.7,14.64A48,48,0,0,0,71.67,65.41q0,15.36,7,22.49,5,3.75,10,7.32a5.23,5.23,0,0,1,1.25,3.57q0,5.71-5.35,5.72a8.83,8.83,0,0,1-5.16-2Q62.59,90.79,62.59,68q0-24.93,18.35-42.93Q100.35,6,130.82,6q19.06,0,33,9.08,7.13-4.46,15.5-9.08a10.74,10.74,0,0,1,5.17-1.61q3.56,0,3.56,3c0,2.26-1.61,4.16-4.81,5.7a74.42,74.42,0,0,0-12.12,7.13,61,61,0,0,1,16,21.73,57,57,0,0,1,5.16,23q0,17.64-13.09,30.74T149,108.78a58,58,0,0,1-21-3.92q-9.61,25.83-28.5,39.37-16,11.58-34,11.58-17.28,0-28.86-9.26T25,122.68q0-13.19,8-20.49a21.3,21.3,0,0,1,14.25-5.52,13.45,13.45,0,0,1,9.89,4,12.47,12.47,0,0,1,4,9q0,5.7-5.61,9.44c-3.74,2.5-5.79,3.92-6.14,4.28a11.2,11.2,0,0,0-3.75,8.37q0,8.2,11.23,8.2Q76,141.93,105.52,87.05Zm26.73,5.7a22.34,22.34,0,0,1,3.47.44,21.6,21.6,0,0,0,3.65.45q11.4,0,19.42-12.15,7.67-11.61,7.66-27a39.18,39.18,0,0,0-6.59-22.33Q146.49,50,132.25,92.75Z" transform="translate(-25 -4.38)"/>
    <path class="cls-1" d="M208.31,122.5q-.88,9.8,7.13,10,5,.18,12.65-4.27a61.72,61.72,0,0,0,12.11-9.62q6.78-7.31,9.18-8.82a9.67,9.67,0,0,1,2.94-1.51,6.89,6.89,0,0,1,3.56,1.42,2.21,2.21,0,0,1,.89,1.78q0,3.93-12.47,15.5-23,21.21-42,21.2a20.78,20.78,0,0,1-10.33-2.49,22.82,22.82,0,0,1-9.45-10.51q-2.85-5.88-2.13-10c.47-3,.83-4.93,1.06-5.88a12.37,12.37,0,0,1,3.92-5.17c-3.09,3.09-5.28,4.64-6.59,4.64a3.83,3.83,0,0,1-2.94-1.61,5,5,0,0,1-1.33-3.2c0-1.43,1.18-3,3.56-4.64q2-1.43,11.85-13.18A120.53,120.53,0,0,1,210.1,76.71q14.6-11,26-11,7.48,0,11.93,4.45,5,5,5,10.69,0,8.55-10.69,20A78.84,78.84,0,0,1,208.31,122.5Zm12.12-18q2.85,0,12.11-9.8,5.52-5.88,5.53-12.3c0-1.89-.72-2.85-2.14-2.85q-3.39,0-12.12,11.58-6,7.31-6.05,11C217.76,103.73,218.65,104.51,220.43,104.51Z" transform="translate(-25 -4.38)"/>
    <path class="cls-1" d="M271.91,79.56a10.44,10.44,0,0,1-4.1-8.37,21.68,21.68,0,0,1,2.68-9.44q4.44-8.55,13-8.55A8.43,8.43,0,0,1,288.93,55q2.22,1.79,2.22,5.52A19.1,19.1,0,0,1,289,68.7q4.64,2.67,13.9-.36,7.84-2.67,11-2.67c3.2,0,5.1,1.36,5.7,4.1a12.08,12.08,0,0,1,.35,2.85,15.4,15.4,0,0,1-1.78,6.68c-1.19,2.43-2.38,4.78-3.56,7q-5.88,12.48-13.18,28.86-2.14,5.88,0,7.13a6.66,6.66,0,0,0,5.34-3q4.28-3.92,10.69-10.33a5.61,5.61,0,0,1,4.81-2.5,2.76,2.76,0,0,1,2.49,1.07,3.91,3.91,0,0,1,1.43,2.5q0,1.25-3.21,5.16-17.1,20.67-35.09,29.4a21.55,21.55,0,0,1-9.62,2.49,13.29,13.29,0,0,1-10.78-4.81q-4-4.8-3.48-10,1.24-11.24,18.18-32.43,6.58-8.19,6.59-12.82,0-4.45-7.66-4.46-19.24,25.13-27.44,33.14c-2,2-4.1,2.31-6.23.89a2.41,2.41,0,0,1-1.43-2.32,3.71,3.71,0,0,1,1.43-2.85q7.65-8.55,11.93-13.89A164.64,164.64,0,0,0,271.91,79.56Z" transform="translate(-25 -4.38)"/>
    <path class="cls-1" d="M380.23,82.59l-10.69,25.83q-3.39,8.39-8.38,19.24a58.44,58.44,0,0,0,6.95-2.49q7.49-3,18.71-17.64,2.31-3,6.77-1.07c1.3.84,1.13,2.92-.54,6.24q-.71,1.6-24.94,24.58A35.32,35.32,0,0,1,352.26,146q-17.82,33.5-32.25,45.61-6.58,5.52-17.81,5.52-8.91,0-11.05-3.2a3.9,3.9,0,0,1-.71-2.14c0-1.55,1.07-3.68,3.21-6.42,4.15-5,6.35-7.72,6.59-8.19q7.13-8.73,25.47-35.63a16.13,16.13,0,0,1-5.34-11.94,9.75,9.75,0,0,1,2-6.23q5.52-7.12,10.86-7.13a9.63,9.63,0,0,1,5.35,1.78q2.13-4.28,9.26-20.3-5,2.31-11.93,5.87a39.72,39.72,0,0,0-8.91,7.84c-2.14,2.5-3.5,3.86-4.1,4.1q-3.74,1.61-5.34,0a3.38,3.38,0,0,1-1.43-2.85,6.66,6.66,0,0,1,1.07-3.39q3.91-7.29,27.79-21,3.75-2.13,8.73-4.81,11-26.9,24.41-44.71,17.28-23,36.16-23Q431,15.78,431,29.5,431,42.16,417.46,58,408.73,68.35,380.23,82.59Zm23-49.17q-4.63,6.24-16.39,33.49a54.28,54.28,0,0,0,7.66-4.09q3.91-2.85,10-10.51,6.6-8.37,7.84-13a20.89,20.89,0,0,0,.89-5.52c0-3.09-1.06-4.63-3.2-4.63C407.6,29.15,405.35,30.57,403.21,33.42Z" transform="translate(-25 -4.38)"/>
    <path class="cls-1" d="M417.46,122.5q-.9,9.8,7.13,10,5,.18,12.64-4.27a61.8,61.8,0,0,0,12.12-9.62q6.76-7.31,9.17-8.82a9.91,9.91,0,0,1,2.94-1.51,7,7,0,0,1,3.57,1.42,2.21,2.21,0,0,1,.89,1.78q0,3.93-12.47,15.5-23,21.21-42.05,21.2a20.81,20.81,0,0,1-10.33-2.49,22.74,22.74,0,0,1-9.44-10.51q-2.85-5.88-2.14-10,.7-4.45,1.07-5.88a12.29,12.29,0,0,1,3.92-5.17q-4.64,4.63-6.59,4.64a3.83,3.83,0,0,1-2.94-1.61,5,5,0,0,1-1.34-3.2c0-1.43,1.19-3,3.56-4.64q2-1.43,11.85-13.18a120.53,120.53,0,0,1,20.22-19.42q14.61-11,26-11,7.49,0,11.94,4.45,5,5,5,10.69,0,8.55-10.68,20A78.84,78.84,0,0,1,417.46,122.5Zm12.11-18q2.85,0,12.12-9.8,5.52-5.88,5.52-12.3c0-1.89-.71-2.85-2.14-2.85q-3.37,0-12.11,11.58-6.06,7.31-6.06,11C426.9,103.73,427.79,104.51,429.57,104.51Z" transform="translate(-25 -4.38)"/>
    <path class="cls-1" d="M467.16,112.7q-4.28,4.64-6.59,4.63a3.81,3.81,0,0,1-2.94-1.6,5,5,0,0,1-1.34-3.21c0-1.3,1.13-2.85,3.39-4.63q2.49-2,12.11-13.18a187.45,187.45,0,0,1,20-20.13q11.75-10.15,24.58-10.16a29.82,29.82,0,0,1,11.22,2.14c2.61,1.07,4.34,2.14,5.17,3.21a16.08,16.08,0,0,1,4.1,10.68,18.23,18.23,0,0,1-4.1,11.23q-5,6.41-10.87,6.41-8.55,0-8.55-8a10.26,10.26,0,0,1,1.43-5.16,8.38,8.38,0,0,1,6.41-4.28,6.6,6.6,0,0,0-4.27-1.6q-8.39,0-19.6,21.73-7.12,13.9-7.13,21.74,0,8.37,7.13,8.55,5,.18,12.65-4.28a55.43,55.43,0,0,0,11.93-9.62q6.78-7.12,9.27-8.82c1.66-1.12,2.73-1.69,3.2-1.69a5.74,5.74,0,0,1,3.21,1.61,2.16,2.16,0,0,1,.89,1.78q0,3.73-12.47,15.5-22.64,21.38-41.86,21.37a20.7,20.7,0,0,1-10.52-2.67,23,23,0,0,1-9.26-10.51q-2.85-5.88-2.14-10a37.38,37.38,0,0,1,1.25-5.88A12.77,12.77,0,0,1,467.16,112.7Z" transform="translate(-25 -4.38)"/>
    <path class="cls-1" d="M558.73,75.64q-5.7,0-5.7-4.45a7.37,7.37,0,0,1,.89-3.21q2-3.37,13.72-3.38,2.13-2.49,3.2-3.92,1.24-2.15,13.19-21.91c1.3-2.14,2.73-3.21,4.27-3.21s3.09,1.07,5,3.21q2.31,2.67,4.46,5.34a12.87,12.87,0,0,1,2.49,7.48,23.14,23.14,0,0,1-2.49,9.62,38.21,38.21,0,0,0-2,3.74c10,0,15,1,15,3a4.79,4.79,0,0,1-.89,2.32l-3.21,4.63Q605.41,76,601.49,76H590.08q-6.76,11.64-8.55,14.25a25.1,25.1,0,0,1,2.14-3.92q-14.79,28.15-15.5,30.29c-1.54,4-1.37,6.59.54,7.66.59.36,1.78.27,3.56-.27a9.55,9.55,0,0,0,4.1-2.22q6.76-5.36,15.67-13a6.62,6.62,0,0,1,5-2.32c2.5,0,3.74,1.13,3.74,3.39,0,1.07-1.06,2.85-3.2,5.34q-7.14,8.55-21.91,19.24-17.29,12.3-25.84,12.3a13.84,13.84,0,0,1-11.22-5.17c-2.62-3-3.68-6.12-3.21-9.44q1.61-12.3,16.39-37.59-6.94,8.91-17.46,21-3.37,3.39-6.41,1.07-3.21-2,0-5.52Q540.38,97.2,558.73,75.64Z" transform="translate(-25 -4.38)"/>
    <path class="cls-1" d="M755.59,66.2q-8,13.36-15.5,29Q729.94,115.91,729.93,123c0,1.9.6,3,1.78,3.21,2.62.36,5.7-.89,9.27-3.74q3.21-3.39,6.68-7a103.78,103.78,0,0,1,9-8q1.77-.89,4.81.54a4,4,0,0,1,0,4.81A108.72,108.72,0,0,1,739,137.28q-13,10.16-23,10.16a14.63,14.63,0,0,1-12.65-6.61q-4.11-5.72-4.1-14.28A36.4,36.4,0,0,1,702,112.79c2.14-5.11,4.28-10.3,6.42-15.53a210.61,210.61,0,0,1,11.4-22.68l-7.66-.18a54.27,54.27,0,0,0-8.91.35q-.9,2.49-2.32,7.82a119.54,119.54,0,0,1-18.7,38.93q-21,28.6-49.17,28.61-18,0-30.91-9.94t-12.92-24q0-11.72,10.51-21.84a15.2,15.2,0,0,1,10.87-4.44,14.09,14.09,0,0,1,10.07,4,12.68,12.68,0,0,1,4.18,9.49q0,9.06-7.3,11.89-6.6,2.67-6.59,9a9,9,0,0,0,3.56,7.19,13,13,0,0,0,8.55,2.92c3.45,0,7.48-1.59,12.12-4.79q10.5-7.27,19.59-23.08,3.39-5.85,13.18-22.19a31.32,31.32,0,0,0-9.26,4.81,131.36,131.36,0,0,0-11.93,9.62,3.46,3.46,0,0,1-3,1.25c-2.62,0-3.92-1.36-3.92-4.1a3.53,3.53,0,0,1,.44-1.42,3.42,3.42,0,0,0,.45-1.25q1.43-2.13,10.51-8.73,11-7.65,18.53-10.15a7.6,7.6,0,0,0,2.49-.8,7.35,7.35,0,0,1,2.67-.81l11.58-19.06Q669.72,63,659.21,63a19.26,19.26,0,0,1-13.37-5,15.57,15.57,0,0,1-5.52-11.94,33.41,33.41,0,0,1,9.62-24A31,31,0,0,1,673.1,12c3.21,0,4.81,1,4.81,2.85a4.54,4.54,0,0,1-1.42,2.85l-5.7,5a13.16,13.16,0,0,0-3.57,9.45,8.72,8.72,0,0,0,3,6.68,10.23,10.23,0,0,0,7.13,2.76q13,0,32.24-17.28,12.64-11.4,19.24-11.41c3.68,0,5.53,1,5.53,3a4.21,4.21,0,0,1-1.25,2.67,128.67,128.67,0,0,0-11.58,11.54Q716.75,37.08,706.24,66c1,0,2.49,0,4.63-.17s3.8-.18,5-.18A60.53,60.53,0,0,0,726,64.6a193,193,0,0,1,28.69-34Q776.08,10.8,793.18,10.8q11.22,0,11.22,9.08,0,8-10.16,20Q779.46,57.3,755.59,66.2ZM787.3,34.49q5.16-6.95,5.16-9.26c0-1.43-1-2.14-3-2.14q-3.73,0-10.68,9.09Q770,43.4,763.42,53.55q12.3-5.52,17.82-11.93Q783.55,39,787.3,34.49Z" transform="translate(-25 -4.38)"/>
    <path class="cls-1" d="M836.82,106.46q2.85,1.08,2.85,2.85,0,2-2.85,5.17-9.09,12.12-21,13a11.54,11.54,0,0,1-6.59-1.07q-15.69,20.67-34.92,20.66-9.09,0-14.43-5.88t-5.34-15.85a39.76,39.76,0,0,1,1.06-8.91,2.37,2.37,0,0,1-1.78.71q-3.56,0-3.56-3.55a5,5,0,0,1,1.43-3.37q8.72-11,18.88-21.66,15.68-16.87,27.79-22.38A30.79,30.79,0,0,1,811.52,63q12.12,0,16.22,12.26a19.7,19.7,0,0,1,.89,6.21q0,11.9-8.91,29.47c1.42.83,2.14,2.49,2.14,5q6-1.43,9.62-7.66C833.26,106.46,835,105.87,836.82,106.46ZM786.4,129.09a6.24,6.24,0,0,0,2.5.53q5.7,0,10.15-10.15a16.85,16.85,0,0,1-2.31-8.37,11.84,11.84,0,0,1,.89-4.64q2.31-5.86,11.58-4.27,6.94-13.36,6.95-20,0-5-4.82-5-7.12,0-19.23,22.27-9.27,16.74-9.27,23.33Q782.84,127.49,786.4,129.09Z" transform="translate(-25 -4.38)"/>
    <path class="cls-1" d="M890.62,114a20.55,20.55,0,0,0,6.77-5.17,6.42,6.42,0,0,1,5-2.49c2.5,0,3.74,1.18,3.74,3.56q0,1.61-3.2,5.34a22.78,22.78,0,0,1-14.26,8q-4.8,13.37-15.32,19.42a29,29,0,0,1-14.61,4.1q-16.92,0-21.73-8.73a21.54,21.54,0,0,1-3-10.69q0-8.91,6.95-12.29a26.92,26.92,0,0,1,11.58-2.68,115.84,115.84,0,0,1,12.65,1.25q.89-4.45.53-15.68-.18-10,1.43-15.32-5.18,3-16.22,15.68-14.25,16.4-15.14,17.28c-2.14,2.14-4.27,2.49-6.41,1.07s-2-3.27,0-5.52q8.37-9.8,28-31.89a73.47,73.47,0,0,1,17.46-13.9Q884.21,60,891,60q11.92,0,11.94,10.15a8.81,8.81,0,0,1-3,6.59,9.3,9.3,0,0,1-6.42,2.85,8.94,8.94,0,0,1-1.78-.17c-3.56-1-6-.78-7.3.53a6.13,6.13,0,0,0-2,4.45c0,1.67.71,4.93,2.14,9.8q.34.9,3.91,9.8A26.88,26.88,0,0,1,890.62,114Zm-28.14,8.19q-11.94-1.42-13.54-.35c-1.91,1.18-2.86,2.61-2.86,4.27q0,3.21,3.39,5a6.2,6.2,0,0,0,2.49.53Q857.84,131.58,862.48,122.14Z" transform="translate(-25 -4.38)"/>
    <path class="cls-1" d="M926.07,75.64q-5.7,0-5.7-4.45a7.37,7.37,0,0,1,.89-3.21q2-3.37,13.72-3.38,2.13-2.49,3.2-3.92,1.25-2.15,13.19-21.91c1.3-2.14,2.73-3.21,4.27-3.21s3.09,1.07,5,3.21q2.31,2.67,4.46,5.34a12.87,12.87,0,0,1,2.49,7.48,23.14,23.14,0,0,1-2.49,9.62,38.21,38.21,0,0,0-2,3.74c10,0,15,1,15,3a4.79,4.79,0,0,1-.89,2.32L974,74.93Q972.74,76,968.83,76h-11.4q-6.78,11.64-8.56,14.25A25.1,25.1,0,0,1,951,86.33q-14.79,28.15-15.5,30.29c-1.54,4-1.37,6.59.54,7.66.59.36,1.78.27,3.56-.27a9.55,9.55,0,0,0,4.1-2.22q6.76-5.36,15.68-13a6.59,6.59,0,0,1,5-2.32c2.5,0,3.74,1.13,3.74,3.39,0,1.07-1.06,2.85-3.2,5.34q-7.14,8.55-21.91,19.24-17.29,12.3-25.84,12.3a13.84,13.84,0,0,1-11.22-5.17q-3.91-4.45-3.21-9.44,1.6-12.3,16.39-37.59-6.95,8.91-17.46,21-3.37,3.39-6.41,1.07-3.21-2,0-5.52Q907.71,97.2,926.07,75.64Z" transform="translate(-25 -4.38)"/>
  </g>
</svg>
