<svg id="Capa_1" data-name="Capa 1" xmlns="http://www.w3.org/2000/svg" width="771.32" height="152.61" viewBox="0 0 771.32 152.61">
  <defs>
    <style>
      .cls-1 {
        isolation: isolate;
      }
    </style>
  </defs>
  <title>Perfect-Logo2</title>
  <g class="cls-1">
    <path d="M44.7,17.33A20.59,20.59,0,0,1,52.58,16q8.66,0,14.18,4.33,5.7,4.34,9.45,14.58A61.53,61.53,0,0,1,80,56.12q0,2-.39,5.91Q77.19,83.5,65.28,97.28T38.2,111.07a30.74,30.74,0,0,1-12.8-2.76l-5.71-2.56q.39,9.65,1.08,28.75t.89,28.55l-3.54,1q-3.36,1-5.32-1-2.37-2.55-4.43-38.59T6.3,56.52q0-21.47,1-28.16.78-4.92,2.06-6.89a4.48,4.48,0,0,1,4-2,12.33,12.33,0,0,1,3.55.59,3.41,3.41,0,0,1,2.65,2.26c.33,1.12.5,4.43.5,9.95V43.72L23.24,38Q32.5,21.85,44.7,17.33Zm13.39,7.48a7.94,7.94,0,0,0-5.71-2.56q-10.25,0-21.86,22.06Q21.46,61.85,19.3,84.09q-.4,5.89-.4,6.5a8.45,8.45,0,0,0,2,5.9,27.7,27.7,0,0,0,8.27,5.22,23.76,23.76,0,0,0,9.26,2.46,4.32,4.32,0,0,0,.89-.1A4.34,4.34,0,0,1,40,104q7.49-1.58,15.27-11.92A58.65,58.65,0,0,0,65.77,69.32a53.05,53.05,0,0,0,1.38-12.8,69.69,69.69,0,0,0-2.46-18.71Q62.22,28.94,58.09,24.81Z" transform="translate(-6.3 -15.76)"/>
    <path d="M121.11,71.68a20.4,20.4,0,0,1,7.48-1.38,19.83,19.83,0,0,1,13.88,5.32,17.16,17.16,0,0,1,5.81,13.19q0,11.82-11.91,21.27a41.63,41.63,0,0,1-26.49,9.45h-6.5l.79,9.06q1.38,14,6.89,23.24t12.21,9.25a10.2,10.2,0,0,0,6.7-3q3.14-3.15,9.25-16.15,6.1-12.79,7.49-14.77a5.92,5.92,0,0,1,4.33-2.36h1c1.58,0,2.36.72,2.36,2.17q0,2.76-4.72,14.57-8.47,21.27-19.5,24.61a19.43,19.43,0,0,1-6.89,1.18,27,27,0,0,1-12.9-3.44A28.51,28.51,0,0,1,100,154.58q-7.87-11.81-7.87-30.91,0-13.59,4.33-23.63Q105.75,77.19,121.11,71.68ZM135.48,80Q132.14,76.6,130,76.6q-2.76,0-6.9,2.76a24.42,24.42,0,0,0-6.69,6.5,58.92,58.92,0,0,0-6.3,11.42,64.63,64.63,0,0,0-4.53,12.6c-.27,1.58-.4,2.5-.4,2.76,0,.79.3,1.25.89,1.38a22.74,22.74,0,0,0,3.84.2q16.74-.41,25.4-15.76,3.34-6.1,3.35-10.63A10.7,10.7,0,0,0,135.48,80Z" transform="translate(-6.3 -15.76)"/>
    <path d="M169.74,76.6A7.84,7.84,0,0,1,176.05,74a6.12,6.12,0,0,1,4.52,1.58Q182,77,182,84.09v7.09l2.76-3.35q5.5-7.48,15.95-7.48a11,11,0,0,1,6.89,2,3.18,3.18,0,0,1,1.38,2.17c0,1.45-2.23,2.36-6.69,2.76A10,10,0,0,0,195,90.78q-2.56,3.15-6.1,13a49.08,49.08,0,0,0-3.06,11.81q-.49,4.93-.49,22.06l-.2,24-4.53.4h-1q-3.94,0-4.92-1.38-1.59-2-3.35-14-4.73-27.77-4.73-49.82Q166.59,80,169.74,76.6Z" transform="translate(-6.3 -15.76)"/>
    <path d="M264.26,18.91a14.5,14.5,0,0,1,6.5-2,13.93,13.93,0,0,1,5.91,1.77,12.35,12.35,0,0,1,4.73,4.43,10.35,10.35,0,0,1,1.77,5.42q0,3.74-2.76,4.52a3.21,3.21,0,0,1-1.38.2,5,5,0,0,1-3.54-1.48,4.58,4.58,0,0,1-1.58-3.44c0-2.1-.78-3.15-2.36-3.15a3.38,3.38,0,0,0-2.17.79q-3.54,2.94-7.77,15.06a152.32,152.32,0,0,0-6.4,24.71l-1,5.52h11.23q12.19,0,12.2,2c0,.39-.32.78-1,1.18q-1.38.78-12,1.57l-11,1-1,17.52q-.79,19.31-.79,43.72,0,16.94-.3,22c-.19,3.34-.75,5.35-1.67,6-1.18,1.05-2.83,1.12-4.92.2a5.38,5.38,0,0,1-3-3.25q-.78-2.27-1.77-10.73-1.77-12.79-1.77-44.31V76.41l-6.5.78a26.39,26.39,0,0,1-3.74.2q-6.1,0-6.11-1.77c0-.52.4-1.05,1.18-1.58,1.19-.65,4.2-1.37,9.06-2.16l7.29-.79,2.16-12A89.23,89.23,0,0,1,249.1,37a60.05,60.05,0,0,1,7.09-11.81A26.13,26.13,0,0,1,264.26,18.91Z" transform="translate(-6.3 -15.76)"/>
    <path d="M324.92,71.68a20.4,20.4,0,0,1,7.48-1.38,19.83,19.83,0,0,1,13.88,5.32,17.16,17.16,0,0,1,5.81,13.19q0,11.82-11.91,21.27a41.63,41.63,0,0,1-26.49,9.45h-6.5l.79,9.06q1.38,14,6.89,23.24t12.21,9.25a10.2,10.2,0,0,0,6.7-3Q336.93,155,343,142q6.11-12.79,7.49-14.77a5.92,5.92,0,0,1,4.33-2.36h1c1.58,0,2.36.72,2.36,2.17q0,2.76-4.72,14.57Q345,162.86,334,166.2a19.43,19.43,0,0,1-6.89,1.18,27,27,0,0,1-12.9-3.44,28.51,28.51,0,0,1-10.34-9.36Q296,142.78,296,123.67q0-13.59,4.33-23.63Q309.56,77.19,324.92,71.68ZM339.29,80q-3.35-3.35-5.51-3.35-2.76,0-6.9,2.76a24.42,24.42,0,0,0-6.69,6.5,58.92,58.92,0,0,0-6.3,11.42,64.63,64.63,0,0,0-4.53,12.6c-.27,1.58-.4,2.5-.4,2.76,0,.79.3,1.25.89,1.38a22.74,22.74,0,0,0,3.84.2q16.74-.41,25.4-15.76,3.35-6.1,3.35-10.63A10.7,10.7,0,0,0,339.29,80Z" transform="translate(-6.3 -15.76)"/>
    <path d="M399.35,75.23a31.72,31.72,0,0,1,14.18-3.75,18.32,18.32,0,0,1,15,7.09q2.75,3.75,2.75,5.91a3,3,0,0,1-2.56,3.15,6,6,0,0,1-1.77.39q-2.57,0-5.12-5.11a7.46,7.46,0,0,0-7.29-4.73q-5.7,0-12.7,6.3a52,52,0,0,0-11.91,16.74,51.73,51.73,0,0,0-4,10.53q-.69,3.45-.69,14.28,0,12,1.58,17.33a17.22,17.22,0,0,0,6.1,8.86q2.37,2.17,7.09,2.17,5.12,0,7.68-2.76,2.16-2.35,7.78-13.49T421,125.05c0-1.18,1.25-1.78,3.74-1.78s4.2.66,4.73,2a1.61,1.61,0,0,1,.2,1q0,7.29-6.9,20.68a29.1,29.1,0,0,1-9.65,11.22,22.88,22.88,0,0,1-13,3.94A27.76,27.76,0,0,1,384.19,157q-13.59-8.87-13.59-30.33a50.48,50.48,0,0,1,.79-9.45A62.83,62.83,0,0,1,381,91.77,48.94,48.94,0,0,1,399.35,75.23Z" transform="translate(-6.3 -15.76)"/>
    <path d="M468.67,25.21q.58-2,4.13-2a7.29,7.29,0,0,1,4.14,1.18c.91.79,1.37,3.87,1.37,9.26q0,6.3-.19,11l-.79,18.91h6.1q5.91,0,7.88,1.18c.79.66,1.18,1.18,1.18,1.57,0,1.58-2.75,2.37-8.27,2.37h-6.89l-.79,22.45Q476,103,476,121.7q0,3.35.1,9.35c.07,4,.1,6.86.1,8.57l.39,26H472c-2.23,0-3.58-.26-4-.79s-.89-2.23-1.28-5.11q-3.56-22.26-3.55-63.61V90.59l.39-19.11-9.25.79q-4.34.41-5.71.4c-2.5,0-3.94-.33-4.33-1a3.27,3.27,0,0,1-.4-1q0-2,11.23-3.94l8.46-1.38,2-19.3Q468.08,26.58,468.67,25.21Z" transform="translate(-6.3 -15.76)"/>
    <path d="M564.37,16.74a6.15,6.15,0,0,1,3.34-1,5.28,5.28,0,0,1,4.14,1.77q3,3.54,4.73,97.28Q577,144,577,147.89q0,12.6-.79,16.54T573,168.37a17.47,17.47,0,0,1-2.56-.39,4.06,4.06,0,0,1-3.05-2.37q-.69-1.77-1.28-9.25-.4-5.33-2.36-53L562.2,61.44H517.3l-.39,52.19q-.4,34.45-.69,43.61c-.2,6.11-.76,9.42-1.68,9.95a4.79,4.79,0,0,1-6.3,0Q504.7,165,504.7,96.3q0-11.23.39-34.86l1-43.91,4.33-.4h1.18q3.54,0,4.53,4.34t1,18.51V56.12h11.42q10.23,0,22.05-.78l10.63-1L562,36.24Q562.79,17.93,564.37,16.74Z" transform="translate(-6.3 -15.76)"/>
    <path d="M616.55,72.07a5.1,5.1,0,0,1,3.54-1.77q3.15,0,13.59,6.5Q645.5,84.09,649.73,91t4.23,19.1v1q0,8.07-3.35,21.26t-6.89,19.1Q634.66,167,620.29,167a24.7,24.7,0,0,1-14.18-4.73q-17.72-11.81-17.72-40,0-26.78,16.74-41.94,6.69-6.3,8.27-6.31C614.18,74,615.23,73.39,616.55,72.07Zm20.87,59.67a88,88,0,0,0,2.36-18.9q0-20.09-13.78-29.93l-3.54-2.37-4.14,4.14a49.21,49.21,0,0,0-10.14,18.21,72.63,72.63,0,0,0-3.64,22.75q0,20.28,9.45,29.73,4.13,4.14,6.5,4.14,2,0,5.51-3Q633.1,150.66,637.42,131.74Z" transform="translate(-6.3 -15.76)"/>
    <path d="M694.53,77.79a15.69,15.69,0,0,1,5.71-1q9.06,0,12.8,4.14a11.48,11.48,0,0,1,2.85,4.13,22.66,22.66,0,0,1,.69,6.7q0,5.12-.49,6.4a2.62,2.62,0,0,1-2.46,1.47h-1.18a5.39,5.39,0,0,1-5.71-5.71,11.85,11.85,0,0,0-1.38-5.71c-.92-1.7-2-2.56-3.15-2.56-.92,0-2.24,2-3.94,5.91a23.75,23.75,0,0,0-1.58,8.07q0,7.29,7.68,23.24a104,104,0,0,1,5.71,12.8,30.25,30.25,0,0,1,1.19,9.06,33.38,33.38,0,0,1-.6,7.48,14.46,14.46,0,0,1-2.95,5.32q-6.69,8.67-17.13,8.66a15.9,15.9,0,0,1-6-.88,23.77,23.77,0,0,1-5.81-4.43q-8.65-8.08-12.2-28.16a40,40,0,0,1-.79-7.49c0-3.8,1.24-5.71,3.74-5.71a5,5,0,0,1,.69.1,3.58,3.58,0,0,0,.69.1c1.05.26,2,1.28,2.85,3a84.59,84.59,0,0,1,3.65,10.93q6.89,25.6,14,25.6a5,5,0,0,0,3.94-2.36,11.16,11.16,0,0,0,2.16-7.09c0-.26,0-.82-.1-1.68s-.1-1.54-.1-2.06q-.78-8.07-8.07-22.45-5.31-10-6.5-13.59a29.88,29.88,0,0,1-1.18-9.26Q681.92,83.3,694.53,77.79Z" transform="translate(-6.3 -15.76)"/>
    <path d="M753.8,25.21q.59-2,4.13-2a7.26,7.26,0,0,1,4.14,1.18c.92.79,1.38,3.87,1.38,9.26q0,6.3-.2,11l-.79,18.91h6.11q5.91,0,7.87,1.18c.79.66,1.19,1.18,1.19,1.57q0,2.37-8.27,2.37h-6.9l-.78,22.45q-.6,11.8-.6,30.52c0,2.23,0,5.35.1,9.35s.1,6.86.1,8.57l.4,26h-4.53c-2.24,0-3.58-.26-4-.79s-.89-2.23-1.28-5.11q-3.54-22.26-3.54-63.61V90.59l.39-19.11-9.26.79q-4.33.41-5.71.4c-2.49,0-3.94-.33-4.33-1a3.43,3.43,0,0,1-.39-1q0-2,11.22-3.94l8.47-1.38,2-19.3Q753.2,26.58,753.8,25.21Z" transform="translate(-6.3 -15.76)"/>
  </g>
</svg>
